<?xml version="1.0" encoding="utf-8"?>
<!-- Generator: Adobe Illustrator 22.0.0, SVG Export Plug-In . SVG Version: 6.00 Build 0)  -->
<svg version="1.1" id="Layer_4" xmlns="http://www.w3.org/2000/svg" xmlns:xlink="http://www.w3.org/1999/xlink" x="0px" y="0px"
	 viewBox="0 0 311 103" style="enable-background:new 0 0 311 103;" xml:space="preserve">
<style type="text/css">
	.st0{fill:#FFFFFF;}
</style>
<rect x="205" y="21.2" class="st0" width="1.5" height="10.1"/>
<g>
	<path class="st0" d="M208.6,29.9c0.6,0.1,1.5,0.2,2.4,0.2c0.9,0,1.7-0.1,2.2-0.6c0.3-0.3,0.4-0.6,0.4-1c0-1-0.6-1.3-2.4-1.8
		c-1.7-0.5-2.9-1.2-2.9-2.9c0-0.8,0.4-1.5,1-2c0.7-0.5,1.6-0.7,2.5-0.7c0.9,0,1.9,0.1,2.8,0.3l-0.2,1.3c-0.6-0.1-1.5-0.2-2.3-0.2
		c-0.7,0-1.4,0.1-1.7,0.4c-0.3,0.2-0.5,0.5-0.5,0.9c0,1,0.8,1.3,2.5,1.8c1.6,0.5,2.8,1.2,2.8,3c0,0.9-0.4,1.7-1,2.2
		c-0.7,0.6-1.7,0.7-2.8,0.7c-1,0-2-0.1-2.9-0.3L208.6,29.9z"/>
	<path class="st0" d="M223.4,26.2c0-2.7-0.8-3.9-2.8-3.9c-2,0-2.8,1.2-2.8,3.9s0.8,3.9,2.8,3.9C222.6,30.1,223.4,28.9,223.4,26.2
		 M216.2,26.2c0-3.4,1.3-5.2,4.4-5.2c3.1,0,4.4,1.8,4.4,5.2s-1.3,5.2-4.4,5.2C217.5,31.4,216.2,29.6,216.2,26.2"/>
</g>
<polygon class="st0" points="206.3,47 206.3,38.4 204.2,39.2 203.7,38.2 206.4,36.9 207.8,36.9 207.8,47 "/>
<g>
	<path class="st0" d="M214.3,47v-1.9h-4.8v-1.2c1.1-2.1,2.6-4.6,4-7h1.6c-1.5,2.4-2.8,4.7-4,6.9h3.1l0.1-2.3h1.4v2.3h1.7v1.3h-1.7
		V47H214.3z"/>
	<path class="st0" d="M224.3,41.9c0-2.4-0.1-3.9-2.1-3.9c-2,0-2.2,1.5-2.2,3.9c0,2.4,0.1,3.9,2.2,3.9
		C224.1,45.9,224.3,44.3,224.3,41.9 M218.5,41.9c0-3.4,0.7-5.2,3.7-5.2c2.9,0,3.6,1.8,3.6,5.2c0,3.4-0.7,5.2-3.6,5.2
		C219.2,47.2,218.5,45.3,218.5,41.9"/>
	<path class="st0" d="M233.1,41.9c0-2.4-0.1-3.9-2.1-3.9c-2,0-2.2,1.5-2.2,3.9c0,2.4,0.1,3.9,2.2,3.9
		C232.9,45.9,233.1,44.3,233.1,41.9 M227.3,41.9c0-3.4,0.7-5.2,3.7-5.2c2.9,0,3.6,1.8,3.6,5.2c0,3.4-0.7,5.2-3.6,5.2
		C228,47.2,227.3,45.3,227.3,41.9"/>
</g>
<polygon class="st0" points="237.7,47 237.7,38.4 235.6,39.2 235.1,38.2 237.8,36.9 239.2,36.9 239.2,47 "/>
<g>
	<path class="st0" d="M259.3,92.6c-0.2,0-0.5,0-0.7,0h0h0l-84.9,0c15.3-7.1,26-22.6,26-40.6c0-18-10.7-33.6-26.1-40.6l81.8,0v0h4
		c22.4,0,40.6,18.2,40.6,40.6C299.9,74.4,281.7,92.6,259.3,92.6 M259.3,7.4L259.3,7.4L158,7.4c-0.8,0-1.6,0-2.4,0v3.9
		c22.1,0.4,39.9,18.4,39.9,40.6c0,22.2-17.8,40.2-39.9,40.6v4c1,0,2,0,3.1,0l99.8,0c0.3,0,0.5,0,0.8,0c24.6,0,44.6-20,44.6-44.6
		C303.9,27.4,283.9,7.4,259.3,7.4"/>
	<path class="st0" d="M91.7,51.9c0,22.4-18.2,40.6-40.6,40.6c-22.4,0-40.6-18.2-40.6-40.6c0-22.5,18.2-40.6,40.6-40.6
		C73.5,11.3,91.7,29.5,91.7,51.9 M154.9,92.6c-0.2,0-0.5,0-0.7,0h0h0l-84.2,0c15.3-7.1,26-22.6,26-40.6c0-18-10.7-33.6-26.1-40.6
		l81.2,0v0h4c22.4,0,40.6,18.2,40.6,40.6C195.5,74.4,177.3,92.6,154.9,92.6 M154.9,7.4L154.9,7.4l-100.7,0c-4.7,0-9.2,0.2-12.1,0.8
		C21.5,12.2,6.2,30.3,6.2,52c0,20.2,13.2,37.3,31.6,42.7c0.1,0,0.2,0.1,0.3,0.1c0.4,0.1,0.8,0.2,1.2,0.3c3.7,1,7.8,1.4,15.6,1.4
		l99.2,0c0.3,0,0.5,0,0.8,0c24.6,0,44.6-20,44.6-44.6C199.4,27.4,179.5,7.4,154.9,7.4"/>
	<path class="st0" d="M63.6,31.9c0.8,0,1.4-0.7,1.4-1.4c0-0.8-0.7-1.4-1.4-1.4c-0.8,0-1.4,0.7-1.4,1.4
		C62.1,31.2,62.8,31.9,63.6,31.9"/>
	<path class="st0" d="M58.3,21.7v7.5c0,1.7,0.8,2.6,2.6,2.6c0.2,0,0.4,0,0.4,0v-1.8c-0.6,0-0.8-0.2-0.8-0.7v-7.5H58.3z"/>
	<path class="st0" d="M59.4,20.2c0.8,0,1.4-0.6,1.4-1.4c0-0.8-0.7-1.4-1.4-1.4c-0.8,0-1.4,0.7-1.4,1.4C58,19.6,58.6,20.2,59.4,20.2"
		/>
	<path class="st0" d="M53.6,27.5c1.3,0.1,1.6,0.5,1.6,1.2c0,0.9-0.8,1.2-2.4,1.2c-1.2,0-2.3-0.3-2.9-0.6v1.9
		c0.7,0.3,1.9,0.5,3.3,0.5c3.2,0,4.2-1.5,4.2-3.2c0-1.8-0.8-2.7-3.7-3c-1.3-0.1-1.6-0.4-1.6-1.1c0-0.9,0.7-1.2,1.9-1.2
		c1.2,0,2.2,0.2,3,0.6V22c-0.8-0.3-1.7-0.5-3.1-0.5c-2.9,0-4,1.4-4,3.1C49.8,26.3,50.6,27.3,53.6,27.5"/>
	<path class="st0" d="M51.2,88.1c0,0,22.1-37.3,22.2-37.7H28.9C29,50.8,51.2,88.1,51.2,88.1"/>
	<path class="st0" d="M61.6,35c-4.2,0-8,2-10.3,5.5C49,37,45.2,35,41,35c-6.8,0-12.3,5.2-12.6,11.8H74C73.7,40.2,68.2,35,61.6,35"/>
	<path class="st0" d="M42.6,23.9c0.4-0.2,1.1-0.6,2.1-0.6c1.9,0,2.2,1.5,2.2,3.3c0,1.8-0.3,3.3-2.2,3.3c-1,0-1.7-0.4-2.1-0.6V23.9z
		 M42,30.8c0.9,0.6,1.9,1,3.2,1c2.9,0,4-1.9,4-5.2c0-3.2-1.1-5.2-4-5.2c-1,0-1.9,0.3-2.7,0.8v-5.5h-2.2v14.9h1.3L42,30.8z"/>
</g>
<rect x="101.2" y="21.2" class="st0" width="1.5" height="10.1"/>
<g>
	<path class="st0" d="M104.8,29.9c0.6,0.1,1.5,0.2,2.4,0.2c0.9,0,1.7-0.1,2.2-0.6c0.3-0.3,0.4-0.6,0.4-1c0-1-0.6-1.3-2.4-1.8
		c-1.7-0.5-2.9-1.2-2.9-2.9c0-0.8,0.4-1.5,1-2c0.7-0.5,1.6-0.7,2.5-0.7c0.9,0,1.9,0.1,2.8,0.3l-0.2,1.3c-0.6-0.1-1.5-0.2-2.3-0.2
		c-0.7,0-1.4,0.1-1.7,0.4c-0.3,0.2-0.5,0.5-0.5,0.9c0,1,0.8,1.3,2.5,1.8c1.6,0.5,2.8,1.2,2.8,3c0,0.9-0.4,1.7-1,2.2
		c-0.7,0.6-1.7,0.7-2.8,0.7c-1,0-2-0.1-2.9-0.3L104.8,29.9z"/>
	<path class="st0" d="M119.6,26.2c0-2.7-0.8-3.9-2.8-3.9c-2,0-2.8,1.2-2.8,3.9c0,2.7,0.8,3.9,2.8,3.9
		C118.8,30.1,119.6,28.9,119.6,26.2 M112.4,26.2c0-3.4,1.3-5.2,4.4-5.2c3.1,0,4.4,1.8,4.4,5.2s-1.3,5.2-4.4,5.2
		C113.7,31.4,112.4,29.7,112.4,26.2"/>
	<path class="st0" d="M106.2,40.1c0-1.4-0.5-2.1-2-2.1c-1.5,0-2,0.7-2,2.1c0,0.7,0.1,1.2,0.5,1.6c0.3,0.4,0.9,0.5,1.5,0.5
		c0.8,0,1.5-0.2,2-0.4V40.1z M106.2,42.9c-0.5,0.4-1.4,0.6-2.3,0.6c-1,0-1.9-0.3-2.5-0.9c-0.5-0.5-0.8-1.4-0.8-2.5
		c0-1.1,0.3-1.9,0.8-2.5c0.6-0.6,1.6-0.9,2.8-0.9c1,0,1.9,0.2,2.5,0.7c0.6,0.5,1,1.4,1,2.6v3.8c0,1.2-0.3,2-1,2.6
		c-0.6,0.6-1.6,0.8-2.8,0.8c-0.9,0-2-0.1-2.8-0.3l0.2-1.3c0.5,0.1,1.5,0.2,2.4,0.2c0.8,0,1.6-0.1,2-0.5c0.3-0.3,0.5-0.9,0.5-1.6
		V42.9z"/>
	<path class="st0" d="M115.1,41.9c0-2.4-0.1-3.9-2.1-3.9c-2,0-2.2,1.5-2.2,3.9c0,2.4,0.1,3.9,2.2,3.9
		C114.9,45.9,115.1,44.3,115.1,41.9 M109.3,41.9c0-3.4,0.7-5.2,3.7-5.2c2.9,0,3.6,1.8,3.6,5.2c0,3.4-0.7,5.2-3.6,5.2
		C110,47.2,109.3,45.3,109.3,41.9"/>
	<path class="st0" d="M123.9,41.9c0-2.4-0.1-3.9-2.1-3.9c-2,0-2.2,1.5-2.2,3.9c0,2.4,0.1,3.9,2.2,3.9
		C123.8,45.9,123.9,44.3,123.9,41.9 M118.1,41.9c0-3.4,0.7-5.2,3.7-5.2c2.9,0,3.6,1.8,3.6,5.2c0,3.4-0.7,5.2-3.6,5.2
		C118.8,47.2,118.1,45.3,118.1,41.9"/>
</g>
<polygon class="st0" points="128.5,47 128.5,38.4 126.4,39.2 125.9,38.2 128.6,36.9 130,36.9 130,47 "/>
<g>
	<path class="st0" d="M105.1,55.8h1.1v3.2c-0.7,0.4-1.6,0.7-2.6,0.7c-0.8,0-1.5-0.2-2.1-0.8c-0.6-0.6-0.8-1.6-0.8-3
		c0-1.3,0.3-2.2,0.8-2.8c0.6-0.7,1.5-0.9,2.4-0.9c0.7,0,1.4,0.1,2,0.2l-0.1,0.9c-0.4-0.1-1.1-0.2-1.7-0.2c-0.8,0-1.4,0.1-1.8,0.7
		c-0.3,0.5-0.5,1.2-0.5,2.1c0,1,0.2,1.7,0.5,2.2c0.3,0.4,0.9,0.6,1.4,0.6c0.4,0,0.9-0.1,1.3-0.2V55.8z"/>
	<path class="st0" d="M110.7,56.5c0-0.8-0.2-1.4-1.1-1.4c-0.8,0-1.1,0.7-1.2,1.4H110.7z M111.6,59.2c-0.5,0.2-1.1,0.4-1.8,0.4
		c-1.5,0-2.4-1-2.4-2.7c0-1.4,0.7-2.8,2.3-2.8c1.3,0,2,0.9,2,2.3c0,0.3,0,0.6-0.1,0.8h-3.1c0,0.5,0.1,0.8,0.3,1.1
		c0.2,0.3,0.6,0.4,1,0.4c0.5,0,1.1-0.2,1.5-0.3L111.6,59.2z"/>
	<path class="st0" d="M112.8,58.5c0.5,0.1,1,0.2,1.5,0.2c0.4,0,0.8,0,1-0.2c0.2-0.1,0.2-0.3,0.2-0.5c0-0.4-0.3-0.6-1.3-0.8
		c-0.8-0.2-1.6-0.6-1.6-1.6c0-0.6,0.3-1,0.7-1.2c0.4-0.2,0.9-0.3,1.4-0.3c0.5,0,1.1,0.1,1.5,0.2l-0.1,0.9c-0.4-0.1-0.8-0.1-1.3-0.1
		c-0.5,0-0.8,0-1,0.2c-0.1,0.1-0.2,0.2-0.2,0.4c0,0.4,0.4,0.5,1.5,0.8c0.9,0.3,1.4,0.7,1.4,1.5c0,0.6-0.2,1-0.6,1.2
		c-0.4,0.3-1,0.4-1.6,0.4c-0.6,0-1.2-0.1-1.7-0.2L112.8,58.5z"/>
	<path class="st0" d="M120.6,59.3c-0.4,0.2-0.8,0.3-1.3,0.3c-0.9,0-1.3-0.5-1.3-1.4v-3h-0.8v-0.8l0.8,0l0.1-1.5h0.9v1.5h1.5v0.9H119
		V58c0,0.4,0.1,0.7,0.5,0.7c0.3,0,0.5-0.1,0.8-0.2L120.6,59.3z"/>
	<path class="st0" d="M124.6,57.2c-0.3,0-0.6,0-0.9,0c-0.8,0-1.1,0.3-1.1,0.9c0,0.5,0.3,0.8,0.9,0.8c0.4,0,0.8-0.1,1.2-0.4V57.2z
		 M125.5,52.7c-0.3,0.6-0.5,0.9-1,0.9c-0.5,0-1.1-0.5-1.5-0.5c-0.3,0-0.4,0.2-0.5,0.4l-0.4-0.3c0.2-0.6,0.5-0.9,1-0.9
		c0.5,0,1.1,0.5,1.5,0.5c0.3,0,0.4-0.2,0.5-0.4L125.5,52.7z M124.8,59.5l-0.1-0.4c-0.4,0.4-0.9,0.6-1.5,0.6c-1.1,0-1.7-0.7-1.7-1.6
		c0-0.5,0.2-0.9,0.6-1.2c0.4-0.3,0.8-0.4,1.4-0.4c0.4,0,0.8,0,1.1,0V56c0-0.3-0.1-0.5-0.2-0.7c-0.2-0.2-0.5-0.2-0.9-0.2
		c-0.5,0-1.1,0.1-1.5,0.2l-0.2-0.9c0.5-0.1,1.1-0.2,1.7-0.2c0.7,0,1.2,0.1,1.6,0.4c0.3,0.3,0.5,0.7,0.5,1.3v3.6H124.8z"/>
	<path class="st0" d="M130.5,56.9c0-0.6-0.1-1.2-0.4-1.5c-0.2-0.2-0.5-0.4-0.9-0.4c-0.4,0-0.7,0.1-0.9,0.4c-0.3,0.3-0.4,0.8-0.4,1.5
		c0,0.6,0.1,1.2,0.4,1.5c0.2,0.2,0.5,0.4,0.9,0.4c0.4,0,0.7-0.1,0.9-0.4C130.4,58.1,130.5,57.5,130.5,56.9 M129.2,59.6
		c-0.7,0-1.3-0.2-1.7-0.6c-0.5-0.5-0.7-1.2-0.7-2.1c0-0.9,0.2-1.7,0.7-2.2c0.4-0.4,0.9-0.6,1.7-0.6c0.7,0,1.3,0.2,1.7,0.6
		c0.5,0.5,0.7,1.2,0.7,2.2c0,0.9-0.2,1.7-0.7,2.1C130.5,59.4,130,59.6,129.2,59.6"/>
	<path class="st0" d="M138.7,55.2c-0.3-0.1-0.8-0.1-1.1-0.1c-0.9,0-1.1,0.6-1.1,1.9c0,1.2,0.2,1.8,1.1,1.8c0.4,0,0.8-0.1,1.1-0.3
		V55.2z M139,59.5l-0.1-0.4c-0.4,0.3-0.9,0.5-1.4,0.5c-1.5,0-2-1-2-2.7c0-2,0.6-2.8,2.1-2.8c0.4,0,0.8,0.1,1.2,0.2v-2.1h1v7.3H139z"
		/>
	<path class="st0" d="M144.2,57.2c-0.3,0-0.6,0-0.9,0c-0.8,0-1.1,0.3-1.1,0.9c0,0.5,0.3,0.8,0.9,0.8c0.4,0,0.8-0.1,1.2-0.4V57.2z
		 M144.5,59.5l-0.1-0.4c-0.4,0.4-0.9,0.6-1.5,0.6c-1.1,0-1.7-0.7-1.7-1.6c0-0.5,0.2-0.9,0.5-1.2c0.3-0.3,0.9-0.4,1.4-0.4
		c0.4,0,0.8,0,1.1,0V56c0-0.3-0.1-0.5-0.2-0.7c-0.2-0.2-0.5-0.2-0.9-0.2c-0.5,0-1.1,0.1-1.5,0.2l-0.2-0.9c0.5-0.1,1.1-0.2,1.7-0.2
		c0.7,0,1.2,0.1,1.6,0.4c0.3,0.3,0.5,0.7,0.5,1.3v3.6H144.5z"/>
	<path class="st0" d="M105.9,69.5c0-1.9-0.6-2.8-2-2.8c-1.5,0-2.1,0.9-2.1,2.8c0,1.9,0.6,2.8,2.1,2.8
		C105.3,72.2,105.9,71.4,105.9,69.5 M105.8,74.7c-1.5-0.9-2.8-1.2-3.7-1.9c-0.8-0.5-1.3-1.4-1.3-3.4c0-2.5,0.9-3.8,3.2-3.8
		c2.2,0,3.1,1.3,3.1,3.8c0,1.2-0.3,2.1-0.8,2.7c-0.5,0.6-1.4,0.8-2.1,0.8v0c0.7,0.1,1.5,0.4,2.1,0.7L105.8,74.7z"/>
	<path class="st0" d="M111.8,73.1l-0.1-0.4c-0.4,0.3-1,0.6-1.6,0.6c-1.2,0-1.8-0.7-1.8-1.8v-3.5h1v3.4c0,0.7,0.3,1,0.9,1
		c0.4,0,0.8-0.1,1.2-0.3v-4.1h1v5.2H111.8z"/>
	<path class="st0" d="M117,70.8c-0.3,0-0.6,0-0.9,0c-0.8,0-1.1,0.3-1.1,0.9c0,0.5,0.3,0.8,0.9,0.8c0.4,0,0.8-0.1,1.2-0.4V70.8z
		 M117.3,73.1l-0.1-0.4c-0.4,0.4-0.9,0.6-1.5,0.6c-1.1,0-1.7-0.7-1.7-1.6c0-0.5,0.2-0.9,0.6-1.2c0.4-0.3,0.8-0.4,1.4-0.4
		c0.4,0,0.8,0,1.1,0v-0.4c0-0.3-0.1-0.5-0.2-0.7c-0.2-0.2-0.5-0.2-0.9-0.2c-0.5,0-1.1,0.1-1.5,0.2l-0.2-0.9c0.5-0.1,1.1-0.2,1.7-0.2
		c0.7,0,1.2,0.1,1.6,0.4c0.3,0.3,0.5,0.7,0.5,1.3v3.6H117.3z"/>
</g>
<rect x="119.6" y="65.8" class="st0" width="1" height="7.3"/>
<g>
	<path class="st0" d="M122.4,67.9h1v5.2h-1V67.9z M122.9,65.8c0.3,0,0.6,0.3,0.6,0.6c0,0.3-0.3,0.6-0.6,0.6c-0.3,0-0.6-0.2-0.6-0.6
		C122.3,66,122.5,65.8,122.9,65.8"/>
	<path class="st0" d="M128.1,68.8c-0.3-0.1-0.8-0.1-1.1-0.1c-0.9,0-1.1,0.6-1.1,1.9c0,1.2,0.2,1.8,1.1,1.8c0.4,0,0.8-0.1,1.1-0.3
		V68.8z M128.3,73.1l-0.1-0.4c-0.4,0.3-0.9,0.5-1.4,0.5c-1.5,0-2-1-2-2.7c0-2,0.6-2.8,2.1-2.8c0.4,0,0.8,0.1,1.2,0.2v-2.1h1v7.3
		H128.3z"/>
	<path class="st0" d="M133.6,70.8c-0.3,0-0.6,0-0.9,0c-0.8,0-1.1,0.3-1.1,0.9c0,0.5,0.3,0.8,0.9,0.8c0.4,0,0.9-0.1,1.2-0.4V70.8z
		 M133.9,73.1l-0.1-0.4c-0.4,0.4-0.9,0.6-1.5,0.6c-1.1,0-1.7-0.7-1.7-1.6c0-0.5,0.2-0.9,0.6-1.2c0.4-0.3,0.8-0.4,1.4-0.4
		c0.4,0,0.8,0,1.1,0v-0.4c0-0.3-0.1-0.5-0.2-0.7c-0.2-0.2-0.5-0.2-0.9-0.2c-0.5,0-1.1,0.1-1.5,0.2l-0.2-0.9c0.5-0.1,1.1-0.2,1.7-0.2
		c0.7,0,1.2,0.1,1.6,0.4c0.3,0.3,0.5,0.7,0.5,1.3v3.6H133.9z"/>
	<path class="st0" d="M139.3,68.8c-0.3-0.1-0.8-0.1-1.1-0.1c-0.9,0-1.1,0.6-1.1,1.9c0,1.2,0.2,1.8,1.1,1.8c0.4,0,0.8-0.1,1.1-0.3
		V68.8z M139.5,73.1l-0.1-0.4c-0.4,0.3-0.9,0.5-1.4,0.5c-1.5,0-2-1-2-2.7c0-2,0.6-2.8,2.1-2.8c0.4,0,0.8,0.1,1.2,0.2v-2.1h1v7.3
		H139.5z"/>
	<path class="st0" d="M144.9,70c0-0.8-0.2-1.4-1.1-1.4c-0.8,0-1.1,0.7-1.2,1.4H144.9z M145.8,72.8c-0.5,0.2-1.1,0.4-1.8,0.4
		c-1.5,0-2.4-1-2.4-2.7c0-1.4,0.7-2.8,2.3-2.8c1.3,0,2,0.9,2,2.3c0,0.3,0,0.6-0.1,0.8h-3.1c0,0.5,0.1,0.8,0.3,1.1
		c0.2,0.3,0.6,0.4,1,0.4c0.5,0,1.1-0.1,1.5-0.3L145.8,72.8z"/>
	<path class="st0" d="M209.7,56.1h1.1v3.2c-0.7,0.4-1.6,0.7-2.6,0.7c-0.8,0-1.5-0.2-2.1-0.8c-0.6-0.6-0.8-1.6-0.8-3
		c0-1.3,0.3-2.2,0.8-2.8c0.6-0.7,1.5-0.9,2.4-0.9c0.7,0,1.4,0.1,2,0.2l-0.1,0.9c-0.4-0.1-1.1-0.2-1.7-0.2c-0.8,0-1.4,0.1-1.8,0.7
		c-0.3,0.5-0.5,1.2-0.5,2.1c0,1,0.2,1.7,0.5,2.2c0.3,0.4,0.9,0.6,1.4,0.6c0.4,0,0.9-0.1,1.3-0.2V56.1z"/>
	<path class="st0" d="M215.3,56.8c0-0.8-0.2-1.4-1.1-1.4c-0.8,0-1.1,0.7-1.2,1.4H215.3z M216.2,59.5c-0.5,0.2-1.1,0.4-1.8,0.4
		c-1.5,0-2.4-1-2.4-2.7c0-1.4,0.7-2.8,2.3-2.8c1.3,0,2,0.9,2,2.3c0,0.3,0,0.6-0.1,0.8H213c0,0.5,0.1,0.8,0.4,1.1
		c0.2,0.3,0.6,0.4,1,0.4c0.5,0,1.1-0.2,1.5-0.3L216.2,59.5z"/>
	<path class="st0" d="M217.4,58.9c0.5,0.1,1,0.2,1.5,0.2c0.4,0,0.7,0,1-0.2c0.2-0.1,0.2-0.3,0.2-0.5c0-0.4-0.3-0.6-1.3-0.8
		c-0.8-0.2-1.6-0.6-1.6-1.6c0-0.6,0.3-1,0.7-1.2c0.4-0.2,0.9-0.3,1.4-0.3c0.5,0,1.1,0.1,1.5,0.2l-0.1,0.9c-0.4-0.1-0.8-0.1-1.3-0.1
		c-0.5,0-0.8,0-1,0.2c-0.1,0.1-0.2,0.2-0.2,0.4c0,0.4,0.4,0.5,1.5,0.8c0.9,0.3,1.4,0.7,1.4,1.5c0,0.6-0.2,1-0.6,1.2
		c-0.4,0.3-1,0.4-1.6,0.4c-0.6,0-1.2-0.1-1.7-0.2L217.4,58.9z"/>
	<path class="st0" d="M225.2,59.6c-0.4,0.2-0.8,0.3-1.3,0.3c-0.9,0-1.3-0.5-1.3-1.4v-3.1h-0.8v-0.8l0.8,0l0.1-1.5h0.9v1.5h1.5v0.9
		h-1.5v2.9c0,0.4,0.1,0.7,0.5,0.7c0.3,0,0.5-0.1,0.8-0.2L225.2,59.6z"/>
	<path class="st0" d="M229.2,57.5c-0.3,0-0.6,0-0.9,0c-0.8,0-1.1,0.3-1.1,0.9c0,0.5,0.3,0.8,0.9,0.8c0.4,0,0.8-0.1,1.2-0.4V57.5z
		 M230.1,53c-0.3,0.6-0.5,0.9-1,0.9c-0.5,0-1.1-0.5-1.5-0.5c-0.3,0-0.4,0.2-0.5,0.4l-0.4-0.3c0.2-0.6,0.5-0.9,1-0.9
		c0.5,0,1.1,0.5,1.5,0.5c0.3,0,0.4-0.2,0.5-0.4L230.1,53z M229.4,59.8l-0.1-0.4c-0.4,0.4-0.9,0.6-1.5,0.6c-1.1,0-1.7-0.7-1.7-1.6
		c0-0.5,0.2-0.9,0.6-1.2c0.3-0.3,0.8-0.4,1.4-0.4c0.4,0,0.8,0,1.1,0v-0.4c0-0.3-0.1-0.5-0.2-0.7c-0.2-0.2-0.5-0.2-0.9-0.2
		c-0.5,0-1.1,0.1-1.5,0.2l-0.2-0.9c0.5-0.1,1.1-0.2,1.7-0.2c0.7,0,1.2,0.1,1.6,0.4c0.3,0.3,0.5,0.7,0.5,1.3v3.6H229.4z"/>
	<path class="st0" d="M235.1,57.2c0-0.6-0.1-1.2-0.4-1.5c-0.2-0.2-0.5-0.4-0.9-0.4c-0.4,0-0.7,0.1-0.9,0.4c-0.3,0.3-0.4,0.8-0.4,1.5
		c0,0.6,0.1,1.2,0.4,1.5c0.2,0.2,0.5,0.4,0.9,0.4c0.4,0,0.7-0.1,0.9-0.4C235,58.4,235.1,57.9,235.1,57.2 M233.8,59.9
		c-0.7,0-1.3-0.2-1.7-0.6c-0.5-0.5-0.7-1.2-0.7-2.1c0-0.9,0.2-1.7,0.7-2.2c0.4-0.4,0.9-0.6,1.7-0.6c0.7,0,1.3,0.2,1.7,0.6
		c0.5,0.5,0.7,1.2,0.7,2.2c0,0.9-0.2,1.7-0.7,2.1C235.1,59.7,234.6,59.9,233.8,59.9"/>
	<path class="st0" d="M243.3,55.5c-0.3-0.1-0.8-0.1-1.1-0.1c-0.9,0-1.1,0.6-1.1,1.9c0,1.2,0.2,1.8,1.1,1.8c0.4,0,0.8-0.1,1.1-0.3
		V55.5z M243.6,59.8l-0.1-0.4c-0.4,0.3-0.9,0.5-1.4,0.5c-1.5,0-2-1-2-2.7c0-2,0.6-2.8,2.1-2.8c0.4,0,0.8,0.1,1.2,0.2v-2.1h1v7.3
		H243.6z"/>
	<path class="st0" d="M249.4,57.2c0-0.6-0.1-1.2-0.4-1.5c-0.2-0.2-0.5-0.4-0.9-0.4c-0.4,0-0.7,0.1-0.9,0.4c-0.3,0.3-0.4,0.8-0.4,1.5
		c0,0.6,0.1,1.2,0.4,1.5c0.2,0.2,0.5,0.4,0.9,0.4c0.4,0,0.7-0.1,0.9-0.4C249.3,58.4,249.4,57.9,249.4,57.2 M248.1,59.9
		c-0.7,0-1.3-0.2-1.7-0.6c-0.5-0.5-0.7-1.2-0.7-2.1c0-0.9,0.2-1.7,0.7-2.2c0.4-0.4,0.9-0.6,1.7-0.6c0.7,0,1.3,0.2,1.7,0.6
		c0.5,0.5,0.7,1.2,0.7,2.2c0,0.9-0.2,1.7-0.7,2.1C249.3,59.7,248.8,59.9,248.1,59.9"/>
	<path class="st0" d="M211.7,73.4c-0.1-2-0.1-4-0.2-5.9h-0.1l-1.7,4.6h-1.2l-1.7-4.6h-0.1c-0.1,1.9-0.2,3.9-0.2,5.9h-1.1
		c0.1-2.4,0.2-4.9,0.3-7.3h1.6l1.7,4.8h0.1l1.7-4.8h1.6c0.1,2.4,0.3,4.9,0.3,7.3H211.7z"/>
	<path class="st0" d="M217.3,70.4c0-0.8-0.2-1.4-1.1-1.4c-0.8,0-1.1,0.7-1.2,1.4H217.3z M218.2,73.1c-0.5,0.2-1.1,0.4-1.8,0.4
		c-1.5,0-2.4-1-2.4-2.7c0-1.4,0.7-2.8,2.3-2.8c1.3,0,2,0.9,2,2.3c0,0.3,0,0.6-0.1,0.8h-3.1c0,0.5,0.1,0.8,0.4,1.1
		c0.2,0.3,0.6,0.4,1,0.4c0.5,0,1.1-0.2,1.5-0.3L218.2,73.1z"/>
	<path class="st0" d="M219.6,68.2h1v5.2h-1V68.2z M220.2,66.1c0.3,0,0.6,0.3,0.6,0.6c0,0.3-0.3,0.6-0.6,0.6c-0.3,0-0.6-0.3-0.6-0.6
		C219.6,66.3,219.8,66.1,220.2,66.1"/>
	<path class="st0" d="M225.7,70.8c0-0.6-0.1-1.2-0.4-1.5c-0.2-0.2-0.5-0.4-0.9-0.4c-0.4,0-0.7,0.1-0.9,0.4c-0.3,0.3-0.4,0.8-0.4,1.5
		c0,0.6,0.1,1.2,0.4,1.5c0.2,0.2,0.5,0.4,0.9,0.4c0.4,0,0.7-0.1,0.9-0.4C225.6,72,225.7,71.4,225.7,70.8 M224.4,73.5
		c-0.7,0-1.3-0.2-1.7-0.6c-0.5-0.5-0.7-1.2-0.7-2.1c0-0.9,0.2-1.7,0.7-2.2c0.4-0.4,0.9-0.6,1.7-0.6c0.7,0,1.3,0.2,1.7,0.6
		c0.5,0.5,0.7,1.2,0.7,2.2c0,0.9-0.2,1.7-0.7,2.1C225.6,73.3,225.1,73.5,224.4,73.5"/>
	<path class="st0" d="M234.4,70.9c-0.3-1.2-0.8-2.7-1.2-3.8h0c-0.4,1.1-0.8,2.7-1.2,3.8H234.4z M235.1,73.4c-0.1-0.5-0.3-1-0.4-1.5
		h-2.9c-0.1,0.5-0.3,1-0.4,1.5h-1.1c0.7-2.5,1.4-4.9,2.2-7.3h1.5c0.8,2.4,1.6,4.8,2.2,7.3H235.1z"/>
	<path class="st0" d="M243.4,73.4v-3.5c0-0.7-0.3-1-0.9-1c-0.4,0-0.8,0.1-1.2,0.4c0,0.2,0.1,0.4,0.1,0.6v3.4h-1v-3.5
		c0-0.7-0.3-1-0.9-1c-0.4,0-0.8,0.1-1.2,0.3v4.1h-1v-5.2h0.8l0.1,0.5c0.4-0.3,0.9-0.6,1.6-0.6c0.6,0,1.1,0.2,1.4,0.7
		c0.5-0.4,1-0.7,1.6-0.7c1.2,0,1.8,0.6,1.8,1.9v3.4H243.4z"/>
	<path class="st0" d="M247.1,72.6c0.3,0.1,0.7,0.1,1.1,0.1c0.9,0,1.1-0.6,1.1-1.9c0-1.1-0.2-1.8-1.1-1.8c-0.4,0-0.8,0.1-1.1,0.2
		V72.6z M246.1,66.1h1v2.3c0.4-0.2,0.8-0.4,1.2-0.4c1.5,0,2,1,2,2.7c0,2-0.6,2.8-2.1,2.8c-0.8,0-1.7-0.2-2.2-0.4V66.1z"/>
	<path class="st0" d="M251.8,68.2h1v5.2h-1V68.2z M252.3,66.1c0.3,0,0.6,0.3,0.6,0.6c0,0.3-0.3,0.6-0.6,0.6c-0.3,0-0.6-0.3-0.6-0.6
		C251.7,66.3,252,66.1,252.3,66.1"/>
	<path class="st0" d="M257.4,70.4c0-0.8-0.2-1.4-1.1-1.4c-0.8,0-1.1,0.7-1.2,1.4H257.4z M258.3,73.1c-0.5,0.2-1.1,0.4-1.8,0.4
		c-1.5,0-2.4-1-2.4-2.7c0-1.4,0.7-2.8,2.3-2.8c1.3,0,2,0.9,2,2.3c0,0.3,0,0.6-0.1,0.8h-3.1c0,0.5,0.1,0.8,0.4,1.1
		c0.2,0.3,0.6,0.4,1,0.4c0.5,0,1.1-0.2,1.5-0.3L258.3,73.1z"/>
	<path class="st0" d="M262.9,73.4V70c0-0.7-0.3-1-0.9-1c-0.5,0-0.9,0.2-1.3,0.3v4.1h-1v-5.2h0.8l0.1,0.5c0.4-0.3,1-0.6,1.6-0.6
		c1.2,0,1.8,0.7,1.8,1.8v3.5H262.9z"/>
	<path class="st0" d="M268.3,73.2c-0.4,0.2-0.8,0.3-1.3,0.3c-0.9,0-1.3-0.5-1.3-1.4V69h-0.8v-0.8l0.8,0l0.1-1.5h0.9v1.5h1.5V69h-1.5
		v2.9c0,0.4,0.1,0.7,0.5,0.7c0.3,0,0.5-0.1,0.8-0.2L268.3,73.2z"/>
	<path class="st0" d="M272.3,70.4c0-0.8-0.2-1.4-1.1-1.4c-0.8,0-1.1,0.7-1.2,1.4H272.3z M273.2,73.1c-0.5,0.2-1.1,0.4-1.8,0.4
		c-1.5,0-2.4-1-2.4-2.7c0-1.4,0.7-2.8,2.3-2.8c1.3,0,2,0.9,2,2.3c0,0.3,0,0.6-0.1,0.8h-3.1c0,0.5,0.1,0.8,0.4,1.1
		c0.2,0.3,0.6,0.4,1,0.4c0.5,0,1.1-0.2,1.5-0.3L273.2,73.1z"/>
</g>
</svg>
